<svg id="Layer_1" data-name="Layer 1" xmlns="http://www.w3.org/2000/svg" viewBox="0 0 119 124"><path d="M8.15,31.52C2,50.09,1.71,72.37,9.65,86.84c12.57,2.72,34,2.33,45.32-3.25-13.75-2.91-35.37-21-46.82-52.07" style="fill:#5cb947;fill-rule:evenodd"/><path d="M60.5,3.29c-19.13,4-38.59,14.83-47.15,29,3.93,12.24,15,30.64,25.48,37.62-4.37-13.36.5-41.13,21.67-66.57" style="fill:#b24e9c;fill-rule:evenodd"/><path d="M111.14,34.51C98.11,19.92,79,8.5,62.48,8.14c-8.63,9.53-19,28.32-19.84,40.88C52,38.56,78.51,28.89,111.14,34.51" style="fill:#e81e25;fill-rule:evenodd"/><path d="M109.42,94c6.11-18.56,6.44-40.84-1.5-55.31-12.57-2.72-34-2.33-45.32,3.25C76.35,44.81,98,62.9,109.42,94" style="fill:#2b3391;fill-rule:evenodd"/><path d="M57.06,122.2c19.14-4,38.6-14.83,47.16-28.95-3.93-12.24-15-30.64-25.48-37.62C83.1,69,78.24,96.76,57.06,122.2" style="fill:#e9e61a;fill-rule:evenodd"/><path d="M6.43,91c13,14.59,32.15,26,48.66,26.37,8.63-9.53,19-28.32,19.84-40.88C65.54,86.93,39.05,96.6,6.43,91" style="fill:#62c5bf;fill-rule:evenodd"/><path d="M8.15,31.52C2,50.09,1.71,72.37,9.65,86.84c12.57,2.72,34,2.33,45.32-3.25-13.75-2.91-35.37-21-46.82-52.07" style="fill:#5cb947;fill-rule:evenodd"/></svg>