<svg xmlns="http://www.w3.org/2000/svg" viewBox="0 0 460 120"><g id="white_words" data-name="white words"><path d="M168.13,89.13h-45V78.86h45a12.32,12.32,0,0,0,8.14-2.55,7.24,7.24,0,0,0,2.79-5.67,6.85,6.85,0,0,0-2.71-5.51,12.69,12.69,0,0,0-8.22-2.47H140.19q-8.7,0-13.8-5.09a15.32,15.32,0,0,1-4.61-11.26,15.21,15.21,0,0,1,4.61-11.17q5.08-5.1,13.8-5.09h44.62V40.32H140.19a7.19,7.19,0,0,0-5.18,1.8,5.73,5.73,0,0,0-1.89,4.27,5.46,5.46,0,0,0,1.72,4.12,7.46,7.46,0,0,0,5.35,1.88h27.94q9.45,0,15.12,5.75a17.65,17.65,0,0,1,5.1,12.74,17.25,17.25,0,0,1-5,12.58q-5.59,5.67-15.21,5.67" style="fill:#fff"/><path d="M228,86l-19.8-38.13-8.55,41.41H188.05l13.16-54.23q1.32-5.43,6.16-5.84C209.72,29,212,31,214,35.05l19.78,38.6L253.54,35q3.12-6.07,6.65-5.75c3.24.28,5.29,2.19,6.17,5.75l13.15,54.32H267.92l-8.54-41.41L239.57,86C238.21,88.63,236.35,90,234,90c-2.63,0-4.63-1.32-6-3.94" style="fill:#fff"/><path d="M293.19,89.13H282.92V30.05h42.39q11.1,0,17.67,6.65a20.08,20.08,0,0,1,5.92,14.63A20.06,20.06,0,0,1,343,66q-6.57,6.58-17.75,6.57h-26V62.26h27.6a12.06,12.06,0,0,0,9-3.45,10.92,10.92,0,0,0,0-15.12q-3.29-3.37-9-3.37H293.19Z" style="fill:#fff"/><polygon points="381.31 40.32 381.31 89.13 371.04 89.13 371.04 40.32 347.71 40.32 347.71 30.05 404.58 30.05 404.58 40.32 381.31 40.32" style="fill:#fff"/><rect x="422.97" y="54.04" width="33.77" height="10.27" style="fill:#fff"/><polygon points="418.62 78.86 459.38 78.86 459.38 89.13 408.34 89.13 408.34 30.05 459.38 30.05 459.38 40.32 418.62 40.32 418.62 78.86" style="fill:#fff"/></g><g id="iris"><path d="M5.15,28.52C-1,47.09-1.29,69.37,6.65,83.84c12.57,2.72,34,2.33,45.32-3.25-13.75-2.91-35.37-21-46.82-52.07" style="fill:#10eb10;fill-rule:evenodd"/><path d="M57.5.29c-19.13,4-38.59,14.83-47.15,29,3.93,12.24,15,30.64,25.48,37.62C31.46,53.5,36.33,25.73,57.5.29" style="fill:#eb10eb;fill-rule:evenodd"/><path d="M108.14,31.51C95.11,16.92,76,5.5,59.48,5.14c-8.63,9.53-19,28.32-19.84,40.88C49,35.56,75.51,25.89,108.14,31.51" style="fill:#eb1010;fill-rule:evenodd"/><path d="M106.42,91c6.11-18.56,6.44-40.84-1.5-55.31-12.57-2.72-34-2.33-45.32,3.25C73.35,41.81,95,59.9,106.42,91" style="fill:#1010a4;fill-rule:evenodd"/><path d="M54.06,119.2c19.14-4,38.6-14.83,47.16-28.95C97.29,78,86.21,59.61,75.74,52.63,80.1,66,75.24,93.76,54.06,119.2" style="fill:#ebeb10;fill-rule:evenodd"/><path d="M3.43,88c13,14.59,32.15,26,48.66,26.37,8.63-9.53,19-28.32,19.84-40.88C62.54,83.93,36.05,93.6,3.43,88" style="fill:#10ebd4;fill-rule:evenodd"/><path d="M5.15,28.52C-1,47.09-1.29,69.37,6.65,83.84c12.57,2.72,34,2.33,45.32-3.25-13.75-2.91-35.37-21-46.82-52.07" style="fill:#10eb10;fill-rule:evenodd"/></g></svg>