<svg id="Layer_2" data-name="Layer 2" xmlns="http://www.w3.org/2000/svg" viewBox="0 0 111 120"><path d="M57.06.71c-19.14,4-38.59,14.84-47.16,29,3.94,12.24,15,30.64,25.48,37.62C31,53.92,35.88,26.16,57.06.71" style="fill:#b24e9c;fill-rule:evenodd"/><path d="M107.69,31.93C94.67,17.35,75.55,5.93,59,5.57,50.4,15.1,40,33.89,39.2,46.45,48.59,36,75.07,26.31,107.69,31.93" style="fill:#e81e25;fill-rule:evenodd"/><path d="M106,91.39c6.12-18.57,6.45-40.84-1.5-55.32-12.56-2.71-34-2.32-45.32,3.26,13.76,2.9,35.38,21,46.82,52.06" style="fill:#2b3391;fill-rule:evenodd"/><path d="M53.62,119.63c19.14-4,38.59-14.84,47.16-29C96.84,78.43,85.77,60,75.3,53.05c4.36,13.36-.5,41.13-21.68,66.58" style="fill:#e9e61a;fill-rule:evenodd"/><path d="M3,88.41c13,14.58,32.14,26,48.65,26.36,8.64-9.53,19-28.32,19.84-40.88C62.09,84.35,35.61,94,3,88.41" style="fill:#62c5bf;fill-rule:evenodd"/><path d="M4.71,29c-6.12,18.57-6.45,40.84,1.5,55.32C18.77,87,40.24,86.59,51.53,81,37.77,78.11,16.15,60,4.71,29" style="fill:#5cb947;fill-rule:evenodd"/></svg>